<mxfile host="app.diagrams.net" modified="2023-08-07T03:24:53.884Z" agent="Mozilla/5.0 (Windows NT 10.0; Win64; x64) AppleWebKit/537.36 (KHTML, like Gecko) Chrome/115.0.0.0 Safari/537.36 Edg/115.0.1901.188" etag="iS5T575HfFBLUFCFtSK1" version="21.6.6" type="device">
  <diagram name="Page-1" id="wIp03RdObnhdTW-ZVyib">
    <mxGraphModel dx="880" dy="476" grid="1" gridSize="10" guides="1" tooltips="1" connect="1" arrows="1" fold="1" page="1" pageScale="1" pageWidth="827" pageHeight="1169" math="0" shadow="0">
      <root>
        <mxCell id="0" />
        <mxCell id="1" parent="0" />
        <mxCell id="hWRR5ygLZFPB1istN6i5-33" style="edgeStyle=orthogonalEdgeStyle;rounded=0;orthogonalLoop=1;jettySize=auto;html=1;entryX=0.5;entryY=0;entryDx=0;entryDy=0;" parent="1" source="hWRR5ygLZFPB1istN6i5-1" target="hWRR5ygLZFPB1istN6i5-31" edge="1">
          <mxGeometry relative="1" as="geometry" />
        </mxCell>
        <mxCell id="hWRR5ygLZFPB1istN6i5-1" value="&lt;font face=&quot;Times New Roman&quot;&gt;Book&lt;/font&gt;" style="rounded=0;whiteSpace=wrap;html=1;" parent="1" vertex="1">
          <mxGeometry x="565" y="250" width="90" height="30" as="geometry" />
        </mxCell>
        <mxCell id="hWRR5ygLZFPB1istN6i5-2" value="&lt;font face=&quot;Times New Roman&quot;&gt;Movies&lt;br&gt;&lt;/font&gt;" style="rounded=0;whiteSpace=wrap;html=1;" parent="1" vertex="1">
          <mxGeometry x="640" y="410" width="90" height="30" as="geometry" />
        </mxCell>
        <mxCell id="hWRR5ygLZFPB1istN6i5-3" value="&lt;font face=&quot;Times New Roman&quot;&gt;&lt;font style=&quot;font-size: 12px;&quot;&gt;Payment&lt;/font&gt;&lt;br&gt;&lt;/font&gt;" style="rounded=0;whiteSpace=wrap;html=1;" parent="1" vertex="1">
          <mxGeometry x="150" y="230" width="90" height="30" as="geometry" />
        </mxCell>
        <mxCell id="hWRR5ygLZFPB1istN6i5-25" style="edgeStyle=orthogonalEdgeStyle;rounded=0;orthogonalLoop=1;jettySize=auto;html=1;entryX=0.5;entryY=0;entryDx=0;entryDy=0;endArrow=none;endFill=0;" parent="1" source="hWRR5ygLZFPB1istN6i5-4" target="hWRR5ygLZFPB1istN6i5-24" edge="1">
          <mxGeometry relative="1" as="geometry" />
        </mxCell>
        <mxCell id="hWRR5ygLZFPB1istN6i5-29" value="" style="edgeStyle=orthogonalEdgeStyle;rounded=0;orthogonalLoop=1;jettySize=auto;html=1;endArrow=none;endFill=0;" parent="1" source="hWRR5ygLZFPB1istN6i5-4" target="hWRR5ygLZFPB1istN6i5-28" edge="1">
          <mxGeometry relative="1" as="geometry">
            <Array as="points">
              <mxPoint x="330" y="325" />
              <mxPoint x="330" y="380" />
            </Array>
          </mxGeometry>
        </mxCell>
        <mxCell id="hWRR5ygLZFPB1istN6i5-4" value="&lt;font face=&quot;Times New Roman&quot;&gt;&lt;font style=&quot;font-size: 12px;&quot;&gt;Reservation&lt;/font&gt;&lt;br&gt;&lt;/font&gt;" style="rounded=0;whiteSpace=wrap;html=1;" parent="1" vertex="1">
          <mxGeometry x="390" y="310" width="90" height="30" as="geometry" />
        </mxCell>
        <mxCell id="hWRR5ygLZFPB1istN6i5-5" value="&lt;font face=&quot;Times New Roman&quot;&gt;&lt;font style=&quot;font-size: 12px;&quot;&gt;Seats&lt;/font&gt;&lt;br&gt;&lt;/font&gt;" style="rounded=0;whiteSpace=wrap;html=1;" parent="1" vertex="1">
          <mxGeometry x="110" y="410" width="90" height="30" as="geometry" />
        </mxCell>
        <mxCell id="hWRR5ygLZFPB1istN6i5-10" value="" style="edgeStyle=orthogonalEdgeStyle;rounded=0;orthogonalLoop=1;jettySize=auto;html=1;endArrow=classic;endFill=1;" parent="1" source="hWRR5ygLZFPB1istN6i5-6" target="hWRR5ygLZFPB1istN6i5-9" edge="1">
          <mxGeometry relative="1" as="geometry" />
        </mxCell>
        <mxCell id="hWRR5ygLZFPB1istN6i5-13" value="" style="edgeStyle=orthogonalEdgeStyle;rounded=0;orthogonalLoop=1;jettySize=auto;html=1;endArrow=classic;endFill=1;" parent="1" source="hWRR5ygLZFPB1istN6i5-6" target="hWRR5ygLZFPB1istN6i5-12" edge="1">
          <mxGeometry relative="1" as="geometry" />
        </mxCell>
        <mxCell id="hWRR5ygLZFPB1istN6i5-18" style="edgeStyle=orthogonalEdgeStyle;rounded=0;orthogonalLoop=1;jettySize=auto;html=1;entryX=0.5;entryY=0;entryDx=0;entryDy=0;" parent="1" source="hWRR5ygLZFPB1istN6i5-6" target="hWRR5ygLZFPB1istN6i5-17" edge="1">
          <mxGeometry relative="1" as="geometry" />
        </mxCell>
        <mxCell id="hWRR5ygLZFPB1istN6i5-6" value="&lt;font face=&quot;Times New Roman&quot;&gt;&lt;font style=&quot;font-size: 12px;&quot;&gt;Users&lt;/font&gt;&lt;br&gt;&lt;/font&gt;" style="rounded=0;whiteSpace=wrap;html=1;" parent="1" vertex="1">
          <mxGeometry x="390" y="140" width="90" height="30" as="geometry" />
        </mxCell>
        <mxCell id="hWRR5ygLZFPB1istN6i5-15" style="edgeStyle=orthogonalEdgeStyle;rounded=0;orthogonalLoop=1;jettySize=auto;html=1;entryX=0.5;entryY=0;entryDx=0;entryDy=0;endArrow=none;endFill=0;" parent="1" source="hWRR5ygLZFPB1istN6i5-9" target="hWRR5ygLZFPB1istN6i5-1" edge="1">
          <mxGeometry relative="1" as="geometry">
            <Array as="points">
              <mxPoint x="605" y="250" />
            </Array>
          </mxGeometry>
        </mxCell>
        <mxCell id="hWRR5ygLZFPB1istN6i5-9" value="Has" style="rhombus;whiteSpace=wrap;html=1;rounded=0;" parent="1" vertex="1">
          <mxGeometry x="565" y="115" width="80" height="80" as="geometry" />
        </mxCell>
        <mxCell id="hWRR5ygLZFPB1istN6i5-16" value="" style="edgeStyle=orthogonalEdgeStyle;rounded=0;orthogonalLoop=1;jettySize=auto;html=1;endArrow=none;endFill=0;" parent="1" source="hWRR5ygLZFPB1istN6i5-12" target="hWRR5ygLZFPB1istN6i5-3" edge="1">
          <mxGeometry relative="1" as="geometry">
            <Array as="points">
              <mxPoint x="265" y="210" />
              <mxPoint x="195" y="210" />
            </Array>
          </mxGeometry>
        </mxCell>
        <mxCell id="hWRR5ygLZFPB1istN6i5-12" value="Does" style="rhombus;whiteSpace=wrap;html=1;rounded=0;" parent="1" vertex="1">
          <mxGeometry x="225" y="115" width="80" height="80" as="geometry" />
        </mxCell>
        <mxCell id="hWRR5ygLZFPB1istN6i5-19" style="edgeStyle=orthogonalEdgeStyle;rounded=0;orthogonalLoop=1;jettySize=auto;html=1;endArrow=none;endFill=0;" parent="1" source="hWRR5ygLZFPB1istN6i5-17" target="hWRR5ygLZFPB1istN6i5-4" edge="1">
          <mxGeometry relative="1" as="geometry" />
        </mxCell>
        <mxCell id="hWRR5ygLZFPB1istN6i5-17" value="Has" style="rhombus;whiteSpace=wrap;html=1;rounded=0;" parent="1" vertex="1">
          <mxGeometry x="395" y="200" width="80" height="80" as="geometry" />
        </mxCell>
        <mxCell id="hWRR5ygLZFPB1istN6i5-92" style="edgeStyle=orthogonalEdgeStyle;rounded=0;orthogonalLoop=1;jettySize=auto;html=1;entryX=0;entryY=0.5;entryDx=0;entryDy=0;" parent="1" source="hWRR5ygLZFPB1istN6i5-24" target="hWRR5ygLZFPB1istN6i5-2" edge="1">
          <mxGeometry relative="1" as="geometry">
            <Array as="points">
              <mxPoint x="570" y="510" />
              <mxPoint x="570" y="460" />
              <mxPoint x="620" y="460" />
              <mxPoint x="620" y="425" />
            </Array>
          </mxGeometry>
        </mxCell>
        <mxCell id="hWRR5ygLZFPB1istN6i5-24" value="Has" style="rhombus;whiteSpace=wrap;html=1;rounded=0;" parent="1" vertex="1">
          <mxGeometry x="395" y="470" width="80" height="80" as="geometry" />
        </mxCell>
        <mxCell id="hWRR5ygLZFPB1istN6i5-30" value="" style="edgeStyle=orthogonalEdgeStyle;rounded=0;orthogonalLoop=1;jettySize=auto;html=1;" parent="1" source="hWRR5ygLZFPB1istN6i5-28" target="hWRR5ygLZFPB1istN6i5-5" edge="1">
          <mxGeometry relative="1" as="geometry" />
        </mxCell>
        <mxCell id="hWRR5ygLZFPB1istN6i5-28" value="Has" style="rhombus;whiteSpace=wrap;html=1;rounded=0;" parent="1" vertex="1">
          <mxGeometry x="230" y="340" width="80" height="80" as="geometry" />
        </mxCell>
        <mxCell id="hWRR5ygLZFPB1istN6i5-34" style="edgeStyle=orthogonalEdgeStyle;rounded=0;orthogonalLoop=1;jettySize=auto;html=1;exitX=0;exitY=0.5;exitDx=0;exitDy=0;" parent="1" source="hWRR5ygLZFPB1istN6i5-31" target="hWRR5ygLZFPB1istN6i5-4" edge="1">
          <mxGeometry relative="1" as="geometry">
            <Array as="points">
              <mxPoint x="560" y="340" />
              <mxPoint x="520" y="340" />
              <mxPoint x="520" y="325" />
            </Array>
          </mxGeometry>
        </mxCell>
        <mxCell id="hWRR5ygLZFPB1istN6i5-31" value="Has" style="rhombus;whiteSpace=wrap;html=1;rounded=0;" parent="1" vertex="1">
          <mxGeometry x="560" y="320" width="80" height="80" as="geometry" />
        </mxCell>
        <mxCell id="hWRR5ygLZFPB1istN6i5-38" value="uid" style="ellipse;whiteSpace=wrap;html=1;" parent="1" vertex="1">
          <mxGeometry x="60" y="210" width="60" height="40" as="geometry" />
        </mxCell>
        <mxCell id="hWRR5ygLZFPB1istN6i5-40" value="rid&lt;br&gt;" style="ellipse;whiteSpace=wrap;html=1;" parent="1" vertex="1">
          <mxGeometry x="140" y="130" width="60" height="40" as="geometry" />
        </mxCell>
        <mxCell id="hWRR5ygLZFPB1istN6i5-41" value="&lt;u&gt;pid&lt;/u&gt;" style="ellipse;whiteSpace=wrap;html=1;" parent="1" vertex="1">
          <mxGeometry x="70" y="150" width="60" height="40" as="geometry" />
        </mxCell>
        <mxCell id="hWRR5ygLZFPB1istN6i5-42" value="mid" style="ellipse;whiteSpace=wrap;html=1;" parent="1" vertex="1">
          <mxGeometry x="60" y="270" width="60" height="40" as="geometry" />
        </mxCell>
        <mxCell id="hWRR5ygLZFPB1istN6i5-43" value="Amount" style="ellipse;whiteSpace=wrap;html=1;" parent="1" vertex="1">
          <mxGeometry x="130" y="300" width="60" height="40" as="geometry" />
        </mxCell>
        <mxCell id="hWRR5ygLZFPB1istN6i5-44" value="Date" style="ellipse;whiteSpace=wrap;html=1;" parent="1" vertex="1">
          <mxGeometry x="200" y="280" width="60" height="40" as="geometry" />
        </mxCell>
        <mxCell id="hWRR5ygLZFPB1istN6i5-47" value="" style="endArrow=none;html=1;rounded=0;entryX=0.5;entryY=1;entryDx=0;entryDy=0;exitX=0.5;exitY=0;exitDx=0;exitDy=0;" parent="1" source="hWRR5ygLZFPB1istN6i5-3" target="hWRR5ygLZFPB1istN6i5-40" edge="1">
          <mxGeometry width="50" height="50" relative="1" as="geometry">
            <mxPoint x="330" y="325" as="sourcePoint" />
            <mxPoint x="60" y="115" as="targetPoint" />
            <Array as="points" />
          </mxGeometry>
        </mxCell>
        <mxCell id="hWRR5ygLZFPB1istN6i5-48" value="" style="endArrow=none;html=1;rounded=0;entryX=1;entryY=1;entryDx=0;entryDy=0;exitX=0.5;exitY=0;exitDx=0;exitDy=0;" parent="1" source="hWRR5ygLZFPB1istN6i5-3" target="hWRR5ygLZFPB1istN6i5-41" edge="1">
          <mxGeometry width="50" height="50" relative="1" as="geometry">
            <mxPoint x="190" y="230" as="sourcePoint" />
            <mxPoint x="180" y="160" as="targetPoint" />
            <Array as="points" />
          </mxGeometry>
        </mxCell>
        <mxCell id="hWRR5ygLZFPB1istN6i5-49" value="" style="endArrow=none;html=1;rounded=0;entryX=0.992;entryY=0.632;entryDx=0;entryDy=0;exitX=0;exitY=1;exitDx=0;exitDy=0;entryPerimeter=0;" parent="1" source="hWRR5ygLZFPB1istN6i5-3" target="hWRR5ygLZFPB1istN6i5-38" edge="1">
          <mxGeometry width="50" height="50" relative="1" as="geometry">
            <mxPoint x="169" y="290" as="sourcePoint" />
            <mxPoint x="100" y="244" as="targetPoint" />
            <Array as="points" />
          </mxGeometry>
        </mxCell>
        <mxCell id="hWRR5ygLZFPB1istN6i5-50" value="" style="endArrow=none;html=1;rounded=0;entryX=0.904;entryY=0.217;entryDx=0;entryDy=0;exitX=0;exitY=1;exitDx=0;exitDy=0;entryPerimeter=0;" parent="1" source="hWRR5ygLZFPB1istN6i5-3" target="hWRR5ygLZFPB1istN6i5-42" edge="1">
          <mxGeometry width="50" height="50" relative="1" as="geometry">
            <mxPoint x="160" y="263" as="sourcePoint" />
            <mxPoint x="110" y="250" as="targetPoint" />
            <Array as="points" />
          </mxGeometry>
        </mxCell>
        <mxCell id="hWRR5ygLZFPB1istN6i5-51" value="" style="endArrow=none;html=1;rounded=0;entryX=0.5;entryY=0;entryDx=0;entryDy=0;exitX=0;exitY=1;exitDx=0;exitDy=0;" parent="1" source="hWRR5ygLZFPB1istN6i5-3" target="hWRR5ygLZFPB1istN6i5-43" edge="1">
          <mxGeometry width="50" height="50" relative="1" as="geometry">
            <mxPoint x="160" y="270" as="sourcePoint" />
            <mxPoint x="114" y="319" as="targetPoint" />
            <Array as="points" />
          </mxGeometry>
        </mxCell>
        <mxCell id="hWRR5ygLZFPB1istN6i5-53" value="" style="endArrow=none;html=1;rounded=0;entryX=0.3;entryY=0.05;entryDx=0;entryDy=0;entryPerimeter=0;exitX=0;exitY=1;exitDx=0;exitDy=0;" parent="1" source="hWRR5ygLZFPB1istN6i5-3" target="hWRR5ygLZFPB1istN6i5-44" edge="1">
          <mxGeometry width="50" height="50" relative="1" as="geometry">
            <mxPoint x="170" y="260" as="sourcePoint" />
            <mxPoint x="170" y="310" as="targetPoint" />
            <Array as="points" />
          </mxGeometry>
        </mxCell>
        <mxCell id="hWRR5ygLZFPB1istN6i5-54" value="&lt;u&gt;uid&lt;/u&gt;" style="ellipse;whiteSpace=wrap;html=1;" parent="1" vertex="1">
          <mxGeometry x="390" y="30" width="60" height="40" as="geometry" />
        </mxCell>
        <mxCell id="hWRR5ygLZFPB1istN6i5-55" value="name" style="ellipse;whiteSpace=wrap;html=1;" parent="1" vertex="1">
          <mxGeometry x="470" y="35" width="60" height="40" as="geometry" />
        </mxCell>
        <mxCell id="hWRR5ygLZFPB1istN6i5-56" value="&lt;u&gt;email&lt;/u&gt;" style="ellipse;whiteSpace=wrap;html=1;" parent="1" vertex="1">
          <mxGeometry x="345" y="75" width="60" height="40" as="geometry" />
        </mxCell>
        <mxCell id="hWRR5ygLZFPB1istN6i5-57" value="password" style="ellipse;whiteSpace=wrap;html=1;" parent="1" vertex="1">
          <mxGeometry x="480" y="90" width="60" height="40" as="geometry" />
        </mxCell>
        <mxCell id="hWRR5ygLZFPB1istN6i5-58" value="" style="endArrow=none;html=1;rounded=0;entryX=0.772;entryY=0.942;entryDx=0;entryDy=0;exitX=0.25;exitY=0;exitDx=0;exitDy=0;entryPerimeter=0;" parent="1" source="hWRR5ygLZFPB1istN6i5-6" target="hWRR5ygLZFPB1istN6i5-56" edge="1">
          <mxGeometry width="50" height="50" relative="1" as="geometry">
            <mxPoint x="205" y="240" as="sourcePoint" />
            <mxPoint x="180" y="180" as="targetPoint" />
            <Array as="points" />
          </mxGeometry>
        </mxCell>
        <mxCell id="hWRR5ygLZFPB1istN6i5-59" value="" style="endArrow=none;html=1;rounded=0;entryX=0.772;entryY=0.942;entryDx=0;entryDy=0;exitX=0.25;exitY=0;exitDx=0;exitDy=0;entryPerimeter=0;" parent="1" source="hWRR5ygLZFPB1istN6i5-6" edge="1">
          <mxGeometry width="50" height="50" relative="1" as="geometry">
            <mxPoint x="446" y="97" as="sourcePoint" />
            <mxPoint x="424" y="70" as="targetPoint" />
            <Array as="points" />
          </mxGeometry>
        </mxCell>
        <mxCell id="hWRR5ygLZFPB1istN6i5-60" value="" style="endArrow=none;html=1;rounded=0;entryX=0.249;entryY=0.93;entryDx=0;entryDy=0;exitX=0.25;exitY=0;exitDx=0;exitDy=0;entryPerimeter=0;" parent="1" source="hWRR5ygLZFPB1istN6i5-6" target="hWRR5ygLZFPB1istN6i5-55" edge="1">
          <mxGeometry width="50" height="50" relative="1" as="geometry">
            <mxPoint x="423" y="150" as="sourcePoint" />
            <mxPoint x="434" y="80" as="targetPoint" />
            <Array as="points" />
          </mxGeometry>
        </mxCell>
        <mxCell id="hWRR5ygLZFPB1istN6i5-61" value="" style="endArrow=none;html=1;rounded=0;entryX=0.013;entryY=0.616;entryDx=0;entryDy=0;exitX=0.25;exitY=0;exitDx=0;exitDy=0;entryPerimeter=0;" parent="1" source="hWRR5ygLZFPB1istN6i5-6" target="hWRR5ygLZFPB1istN6i5-57" edge="1">
          <mxGeometry width="50" height="50" relative="1" as="geometry">
            <mxPoint x="423" y="150" as="sourcePoint" />
            <mxPoint x="495" y="82" as="targetPoint" />
            <Array as="points" />
          </mxGeometry>
        </mxCell>
        <mxCell id="hWRR5ygLZFPB1istN6i5-62" value="rid&lt;br&gt;" style="ellipse;whiteSpace=wrap;html=1;" parent="1" vertex="1">
          <mxGeometry x="490" y="360" width="60" height="40" as="geometry" />
        </mxCell>
        <mxCell id="hWRR5ygLZFPB1istN6i5-63" value="sid" style="ellipse;whiteSpace=wrap;html=1;" parent="1" vertex="1">
          <mxGeometry x="440" y="405" width="60" height="40" as="geometry" />
        </mxCell>
        <mxCell id="hWRR5ygLZFPB1istN6i5-64" value="mid" style="ellipse;whiteSpace=wrap;html=1;" parent="1" vertex="1">
          <mxGeometry x="370" y="410" width="60" height="40" as="geometry" />
        </mxCell>
        <mxCell id="hWRR5ygLZFPB1istN6i5-65" value="uid" style="ellipse;whiteSpace=wrap;html=1;" parent="1" vertex="1">
          <mxGeometry x="335" y="340" width="60" height="40" as="geometry" />
        </mxCell>
        <mxCell id="hWRR5ygLZFPB1istN6i5-67" value="mtime" style="ellipse;whiteSpace=wrap;html=1;" parent="1" vertex="1">
          <mxGeometry x="510" y="420" width="60" height="40" as="geometry" />
        </mxCell>
        <mxCell id="hWRR5ygLZFPB1istN6i5-68" value="date" style="ellipse;whiteSpace=wrap;html=1;" parent="1" vertex="1">
          <mxGeometry x="310" y="440" width="60" height="40" as="geometry" />
        </mxCell>
        <mxCell id="hWRR5ygLZFPB1istN6i5-70" value="" style="endArrow=none;html=1;rounded=0;" parent="1" source="hWRR5ygLZFPB1istN6i5-62" edge="1">
          <mxGeometry width="50" height="50" relative="1" as="geometry">
            <mxPoint x="160" y="270" as="sourcePoint" />
            <mxPoint x="430" y="340" as="targetPoint" />
            <Array as="points" />
          </mxGeometry>
        </mxCell>
        <mxCell id="hWRR5ygLZFPB1istN6i5-71" value="" style="endArrow=none;html=1;rounded=0;exitX=1;exitY=0.5;exitDx=0;exitDy=0;" parent="1" source="hWRR5ygLZFPB1istN6i5-65" edge="1">
          <mxGeometry width="50" height="50" relative="1" as="geometry">
            <mxPoint x="499" y="386" as="sourcePoint" />
            <mxPoint x="430" y="340" as="targetPoint" />
            <Array as="points" />
          </mxGeometry>
        </mxCell>
        <mxCell id="hWRR5ygLZFPB1istN6i5-72" value="" style="endArrow=none;html=1;rounded=0;exitX=0.406;exitY=0.01;exitDx=0;exitDy=0;exitPerimeter=0;" parent="1" source="hWRR5ygLZFPB1istN6i5-63" edge="1">
          <mxGeometry width="50" height="50" relative="1" as="geometry">
            <mxPoint x="480" y="420" as="sourcePoint" />
            <mxPoint x="430" y="340" as="targetPoint" />
            <Array as="points" />
          </mxGeometry>
        </mxCell>
        <mxCell id="hWRR5ygLZFPB1istN6i5-73" value="" style="endArrow=none;html=1;rounded=0;exitX=0.206;exitY=0.091;exitDx=0;exitDy=0;exitPerimeter=0;" parent="1" source="hWRR5ygLZFPB1istN6i5-67" edge="1">
          <mxGeometry width="50" height="50" relative="1" as="geometry">
            <mxPoint x="521" y="423" as="sourcePoint" />
            <mxPoint x="430" y="340" as="targetPoint" />
            <Array as="points" />
          </mxGeometry>
        </mxCell>
        <mxCell id="hWRR5ygLZFPB1istN6i5-74" value="" style="endArrow=none;html=1;rounded=0;exitX=0.5;exitY=0;exitDx=0;exitDy=0;" parent="1" source="hWRR5ygLZFPB1istN6i5-64" edge="1">
          <mxGeometry width="50" height="50" relative="1" as="geometry">
            <mxPoint x="490" y="430" as="sourcePoint" />
            <mxPoint x="430" y="340" as="targetPoint" />
            <Array as="points" />
          </mxGeometry>
        </mxCell>
        <mxCell id="hWRR5ygLZFPB1istN6i5-75" value="" style="endArrow=none;html=1;rounded=0;exitX=0.711;exitY=0.015;exitDx=0;exitDy=0;exitPerimeter=0;" parent="1" source="hWRR5ygLZFPB1istN6i5-68" edge="1">
          <mxGeometry width="50" height="50" relative="1" as="geometry">
            <mxPoint x="410" y="440" as="sourcePoint" />
            <mxPoint x="430" y="340" as="targetPoint" />
            <Array as="points" />
          </mxGeometry>
        </mxCell>
        <mxCell id="hWRR5ygLZFPB1istN6i5-77" value="uid" style="ellipse;whiteSpace=wrap;html=1;" parent="1" vertex="1">
          <mxGeometry x="670" y="110" width="60" height="40" as="geometry" />
        </mxCell>
        <mxCell id="hWRR5ygLZFPB1istN6i5-78" value="mid" style="ellipse;whiteSpace=wrap;html=1;" parent="1" vertex="1">
          <mxGeometry x="690" y="160" width="60" height="40" as="geometry" />
        </mxCell>
        <mxCell id="hWRR5ygLZFPB1istN6i5-79" value="name" style="ellipse;whiteSpace=wrap;html=1;" parent="1" vertex="1">
          <mxGeometry x="510" y="170" width="60" height="40" as="geometry" />
        </mxCell>
        <mxCell id="hWRR5ygLZFPB1istN6i5-80" value="rid&lt;br&gt;" style="ellipse;whiteSpace=wrap;html=1;" parent="1" vertex="1">
          <mxGeometry x="505" y="220" width="60" height="40" as="geometry" />
        </mxCell>
        <mxCell id="hWRR5ygLZFPB1istN6i5-82" value="mtime" style="ellipse;whiteSpace=wrap;html=1;" parent="1" vertex="1">
          <mxGeometry x="680" y="210" width="60" height="40" as="geometry" />
        </mxCell>
        <mxCell id="hWRR5ygLZFPB1istN6i5-83" value="snum" style="ellipse;whiteSpace=wrap;html=1;" parent="1" vertex="1">
          <mxGeometry x="680" y="270" width="60" height="40" as="geometry" />
        </mxCell>
        <mxCell id="hWRR5ygLZFPB1istN6i5-84" value="bdate" style="ellipse;whiteSpace=wrap;html=1;" parent="1" vertex="1">
          <mxGeometry x="645" y="310" width="60" height="40" as="geometry" />
        </mxCell>
        <mxCell id="hWRR5ygLZFPB1istN6i5-85" value="" style="endArrow=none;html=1;rounded=0;entryX=0.187;entryY=0.909;entryDx=0;entryDy=0;entryPerimeter=0;" parent="1" target="hWRR5ygLZFPB1istN6i5-77" edge="1">
          <mxGeometry width="50" height="50" relative="1" as="geometry">
            <mxPoint x="610" y="250" as="sourcePoint" />
            <mxPoint x="491" y="125" as="targetPoint" />
            <Array as="points" />
          </mxGeometry>
        </mxCell>
        <mxCell id="hWRR5ygLZFPB1istN6i5-86" value="" style="endArrow=none;html=1;rounded=0;entryX=0;entryY=0.5;entryDx=0;entryDy=0;" parent="1" target="hWRR5ygLZFPB1istN6i5-78" edge="1">
          <mxGeometry width="50" height="50" relative="1" as="geometry">
            <mxPoint x="610" y="250" as="sourcePoint" />
            <mxPoint x="690" y="160" as="targetPoint" />
            <Array as="points" />
          </mxGeometry>
        </mxCell>
        <mxCell id="hWRR5ygLZFPB1istN6i5-87" value="" style="endArrow=none;html=1;rounded=0;entryX=0.982;entryY=0.606;entryDx=0;entryDy=0;entryPerimeter=0;" parent="1" target="hWRR5ygLZFPB1istN6i5-79" edge="1">
          <mxGeometry width="50" height="50" relative="1" as="geometry">
            <mxPoint x="610" y="250" as="sourcePoint" />
            <mxPoint x="691" y="156" as="targetPoint" />
            <Array as="points" />
          </mxGeometry>
        </mxCell>
        <mxCell id="hWRR5ygLZFPB1istN6i5-88" value="" style="endArrow=none;html=1;rounded=0;entryX=1.006;entryY=0.425;entryDx=0;entryDy=0;entryPerimeter=0;exitX=0.5;exitY=0;exitDx=0;exitDy=0;" parent="1" source="hWRR5ygLZFPB1istN6i5-1" target="hWRR5ygLZFPB1istN6i5-80" edge="1">
          <mxGeometry width="50" height="50" relative="1" as="geometry">
            <mxPoint x="620" y="260" as="sourcePoint" />
            <mxPoint x="579" y="204" as="targetPoint" />
            <Array as="points" />
          </mxGeometry>
        </mxCell>
        <mxCell id="hWRR5ygLZFPB1istN6i5-89" value="" style="endArrow=none;html=1;rounded=0;entryX=0;entryY=0.5;entryDx=0;entryDy=0;exitX=0.5;exitY=0;exitDx=0;exitDy=0;" parent="1" source="hWRR5ygLZFPB1istN6i5-1" target="hWRR5ygLZFPB1istN6i5-82" edge="1">
          <mxGeometry width="50" height="50" relative="1" as="geometry">
            <mxPoint x="620" y="260" as="sourcePoint" />
            <mxPoint x="575" y="247" as="targetPoint" />
            <Array as="points" />
          </mxGeometry>
        </mxCell>
        <mxCell id="hWRR5ygLZFPB1istN6i5-90" value="" style="endArrow=none;html=1;rounded=0;entryX=0.3;entryY=0.042;entryDx=0;entryDy=0;exitX=1;exitY=0.422;exitDx=0;exitDy=0;entryPerimeter=0;exitPerimeter=0;" parent="1" source="hWRR5ygLZFPB1istN6i5-1" target="hWRR5ygLZFPB1istN6i5-83" edge="1">
          <mxGeometry width="50" height="50" relative="1" as="geometry">
            <mxPoint x="620" y="260" as="sourcePoint" />
            <mxPoint x="690" y="240" as="targetPoint" />
            <Array as="points" />
          </mxGeometry>
        </mxCell>
        <mxCell id="hWRR5ygLZFPB1istN6i5-91" value="" style="endArrow=none;html=1;rounded=0;exitX=1;exitY=0.5;exitDx=0;exitDy=0;" parent="1" source="hWRR5ygLZFPB1istN6i5-1" target="hWRR5ygLZFPB1istN6i5-84" edge="1">
          <mxGeometry width="50" height="50" relative="1" as="geometry">
            <mxPoint x="665" y="273" as="sourcePoint" />
            <mxPoint x="708" y="282" as="targetPoint" />
            <Array as="points" />
          </mxGeometry>
        </mxCell>
        <mxCell id="hWRR5ygLZFPB1istN6i5-94" value="&lt;u&gt;sid&lt;/u&gt;" style="ellipse;whiteSpace=wrap;html=1;" parent="1" vertex="1">
          <mxGeometry x="70" y="340" width="60" height="40" as="geometry" />
        </mxCell>
        <mxCell id="hWRR5ygLZFPB1istN6i5-95" value="scolumn" style="ellipse;whiteSpace=wrap;html=1;" parent="1" vertex="1">
          <mxGeometry x="140" y="350" width="60" height="40" as="geometry" />
        </mxCell>
        <mxCell id="hWRR5ygLZFPB1istN6i5-96" value="srow" style="ellipse;whiteSpace=wrap;html=1;" parent="1" vertex="1">
          <mxGeometry x="30" y="380" width="60" height="40" as="geometry" />
        </mxCell>
        <mxCell id="hWRR5ygLZFPB1istN6i5-97" value="" style="endArrow=none;html=1;rounded=0;entryX=0.5;entryY=0;entryDx=0;entryDy=0;" parent="1" source="hWRR5ygLZFPB1istN6i5-94" target="hWRR5ygLZFPB1istN6i5-5" edge="1">
          <mxGeometry width="50" height="50" relative="1" as="geometry">
            <mxPoint x="160" y="270" as="sourcePoint" />
            <mxPoint x="160" y="390" as="targetPoint" />
            <Array as="points" />
          </mxGeometry>
        </mxCell>
        <mxCell id="hWRR5ygLZFPB1istN6i5-98" value="" style="endArrow=none;html=1;rounded=0;exitX=0.5;exitY=1;exitDx=0;exitDy=0;entryX=0.471;entryY=-0.002;entryDx=0;entryDy=0;entryPerimeter=0;" parent="1" source="hWRR5ygLZFPB1istN6i5-95" target="hWRR5ygLZFPB1istN6i5-5" edge="1">
          <mxGeometry width="50" height="50" relative="1" as="geometry">
            <mxPoint x="130" y="390" as="sourcePoint" />
            <mxPoint x="165" y="420" as="targetPoint" />
            <Array as="points" />
          </mxGeometry>
        </mxCell>
        <mxCell id="hWRR5ygLZFPB1istN6i5-99" value="" style="endArrow=none;html=1;rounded=0;entryX=0.474;entryY=-0.011;entryDx=0;entryDy=0;exitX=1;exitY=0.5;exitDx=0;exitDy=0;entryPerimeter=0;" parent="1" source="hWRR5ygLZFPB1istN6i5-96" target="hWRR5ygLZFPB1istN6i5-5" edge="1">
          <mxGeometry width="50" height="50" relative="1" as="geometry">
            <mxPoint x="128" y="386" as="sourcePoint" />
            <mxPoint x="165" y="420" as="targetPoint" />
            <Array as="points" />
          </mxGeometry>
        </mxCell>
        <mxCell id="hWRR5ygLZFPB1istN6i5-100" value="&lt;u&gt;mid&lt;/u&gt;" style="ellipse;whiteSpace=wrap;html=1;" parent="1" vertex="1">
          <mxGeometry x="705" y="340" width="60" height="40" as="geometry" />
        </mxCell>
        <mxCell id="hWRR5ygLZFPB1istN6i5-101" value="mname" style="ellipse;whiteSpace=wrap;html=1;" parent="1" vertex="1">
          <mxGeometry x="750" y="380" width="60" height="40" as="geometry" />
        </mxCell>
        <mxCell id="hWRR5ygLZFPB1istN6i5-102" value="mgenre" style="ellipse;whiteSpace=wrap;html=1;" parent="1" vertex="1">
          <mxGeometry x="750" y="440" width="60" height="40" as="geometry" />
        </mxCell>
        <mxCell id="hWRR5ygLZFPB1istN6i5-103" value="&lt;u&gt;mrate&lt;/u&gt;" style="ellipse;whiteSpace=wrap;html=1;" parent="1" vertex="1">
          <mxGeometry x="630" y="490" width="60" height="40" as="geometry" />
        </mxCell>
        <mxCell id="hWRR5ygLZFPB1istN6i5-104" value="mtime" style="ellipse;whiteSpace=wrap;html=1;" parent="1" vertex="1">
          <mxGeometry x="700" y="480" width="60" height="40" as="geometry" />
        </mxCell>
        <mxCell id="hWRR5ygLZFPB1istN6i5-105" value="" style="endArrow=none;html=1;rounded=0;exitX=0.423;exitY=1.018;exitDx=0;exitDy=0;exitPerimeter=0;entryX=0.5;entryY=0;entryDx=0;entryDy=0;" parent="1" source="hWRR5ygLZFPB1istN6i5-2" target="hWRR5ygLZFPB1istN6i5-103" edge="1">
          <mxGeometry width="50" height="50" relative="1" as="geometry">
            <mxPoint x="532" y="434" as="sourcePoint" />
            <mxPoint x="660" y="480" as="targetPoint" />
            <Array as="points" />
          </mxGeometry>
        </mxCell>
        <mxCell id="hWRR5ygLZFPB1istN6i5-106" value="" style="endArrow=none;html=1;rounded=0;exitX=0.421;exitY=1.048;exitDx=0;exitDy=0;exitPerimeter=0;entryX=0.293;entryY=0.04;entryDx=0;entryDy=0;entryPerimeter=0;" parent="1" source="hWRR5ygLZFPB1istN6i5-2" target="hWRR5ygLZFPB1istN6i5-104" edge="1">
          <mxGeometry width="50" height="50" relative="1" as="geometry">
            <mxPoint x="688" y="451" as="sourcePoint" />
            <mxPoint x="670" y="500" as="targetPoint" />
            <Array as="points" />
          </mxGeometry>
        </mxCell>
        <mxCell id="hWRR5ygLZFPB1istN6i5-107" value="" style="endArrow=none;html=1;rounded=0;entryX=0.049;entryY=0.271;entryDx=0;entryDy=0;entryPerimeter=0;" parent="1" target="hWRR5ygLZFPB1istN6i5-102" edge="1">
          <mxGeometry width="50" height="50" relative="1" as="geometry">
            <mxPoint x="680" y="440" as="sourcePoint" />
            <mxPoint x="751" y="451" as="targetPoint" />
            <Array as="points" />
          </mxGeometry>
        </mxCell>
        <mxCell id="hWRR5ygLZFPB1istN6i5-108" value="" style="endArrow=none;html=1;rounded=0;entryX=0.037;entryY=0.284;entryDx=0;entryDy=0;entryPerimeter=0;exitX=0.5;exitY=0;exitDx=0;exitDy=0;" parent="1" source="hWRR5ygLZFPB1istN6i5-2" target="hWRR5ygLZFPB1istN6i5-101" edge="1">
          <mxGeometry width="50" height="50" relative="1" as="geometry">
            <mxPoint x="690" y="450" as="sourcePoint" />
            <mxPoint x="763" y="461" as="targetPoint" />
            <Array as="points" />
          </mxGeometry>
        </mxCell>
        <mxCell id="hWRR5ygLZFPB1istN6i5-109" value="" style="endArrow=none;html=1;rounded=0;entryX=0.268;entryY=0.942;entryDx=0;entryDy=0;entryPerimeter=0;exitX=0.5;exitY=0;exitDx=0;exitDy=0;" parent="1" source="hWRR5ygLZFPB1istN6i5-2" target="hWRR5ygLZFPB1istN6i5-100" edge="1">
          <mxGeometry width="50" height="50" relative="1" as="geometry">
            <mxPoint x="695" y="420" as="sourcePoint" />
            <mxPoint x="762" y="401" as="targetPoint" />
            <Array as="points" />
          </mxGeometry>
        </mxCell>
      </root>
    </mxGraphModel>
  </diagram>
</mxfile>
